<?xml version="1.0" standalone="no"?>
<!DOCTYPE svg PUBLIC "-//W3C//DTD SVG 20010904//EN"
 "http://www.w3.org/TR/2001/REC-SVG-20010904/DTD/svg10.dtd">
<svg version="1.0" xmlns="http://www.w3.org/2000/svg"
 width="256.000000pt" height="256.000000pt" viewBox="0 0 256.000000 256.000000"
 preserveAspectRatio="xMidYMid meet">
<metadata>
Created by potrace 1.11, written by Peter Selinger 2001-2013
</metadata>
<g transform="translate(0.000000,256.000000) scale(0.100000,-0.100000)"
fill="#000000" stroke="none">
<path d="M510 2540 c-127 -33 -214 -83 -310 -180 -98 -97 -147 -184 -180 -314
-19 -75 -20 -113 -20 -766 0 -773 -1 -763 77 -920 52 -104 179 -231 283 -283
157 -78 147 -77 920 -77 773 0 763 -1 920 77 104 52 231 179 283 283 78 157
77 147 77 920 0 773 1 763 -77 920 -52 104 -179 231 -283 283 -157 78 -146 77
-924 76 -650 0 -695 -1 -766 -19z m-18 -300 c36 -91 72 -186 82 -212 16 -44
25 -53 108 -102 l90 -54 61 44 c33 25 67 42 76 40 9 -3 96 -19 194 -36 l177
-32 178 32 c97 17 184 33 193 36 9 2 43 -15 76 -40 l61 -44 90 54 c87 52 91
56 112 112 12 31 49 129 83 216 l62 160 7 -45 c4 -24 23 -160 43 -302 l35
-259 -70 -76 c-47 -51 -66 -78 -58 -82 7 -4 38 -12 70 -19 l56 -12 -82 -172
c-78 -164 -83 -177 -94 -275 -24 -206 -95 -355 -237 -497 -50 -49 -117 -106
-150 -125 -54 -32 -66 -35 -138 -35 -75 0 -80 -1 -105 -30 -25 -30 -26 -30
-132 -30 -106 0 -107 0 -132 30 -25 29 -30 30 -105 30 -72 0 -84 3 -138 35
-33 19 -100 76 -150 125 -141 141 -213 291 -236 491 -10 93 -16 110 -94 276
l-83 177 56 12 c32 7 63 15 70 19 8 4 -11 31 -58 82 l-70 76 35 259 c20 142
39 277 42 301 3 23 7 41 9 40 1 -2 31 -77 66 -168z m563 -1798 c6 -4 17 -27
24 -52 29 -104 102 -163 200 -163 95 0 169 56 198 153 16 52 28 69 46 70 12 0
8 -55 -8 -101 -53 -148 -220 -215 -352 -139 -28 16 -63 45 -77 63 -30 39 -56
108 -56 148 0 29 6 35 25 21z"/>
<path d="M1157 1745 c-117 -32 -242 -123 -306 -223 -61 -95 -75 -152 -75 -307
0 -119 4 -149 22 -199 60 -163 210 -298 372 -335 67 -16 189 -13 251 5 179 53
309 178 361 349 31 99 31 261 0 361 -52 169 -194 303 -367 349 -71 18 -192 18
-258 0z m161 -361 c259 -158 258 -158 232 -189 -23 -28 -389 -247 -407 -243
-17 3 -18 22 -21 243 -3 256 0 285 24 285 8 0 86 -43 172 -96z"/>
</g>
</svg>
